# xmcd
#
# Track frame offsets:
#	150
#	19710
#	37856
#	55164
#	69623
#	88708
#	104274
#	120872
#	135384
#	150544
#	164953
#
# Disc length: 2374 seconds
#
# Revision: 0
# Processed by: cddbd v1.4PL0 Copyright (c) Steve Scherf et al.
# Submitted via: dBpowerAMP V4.0
#
DISCID=8509440b
DTITLE=Hommage a sweet people  - Avec jean and christianne dic1
DYEAR=1900
DGENRE=
TTITLE0=Un piano pleure a varsovie
TTITLE1=Silver bird
TTITLE2=Chanson d'amour
TTITLE3=Maria dolores
TTITLE4=River blue
TTITLE5=Emporte moi
TTITLE6=Adieu et bonne chance
TTITLE7=Ce n'est qu'un reve
TTITLE8=Santa felicita
TTITLE9=Combien faut-il de temps
TTITLE10=le lac de come
EXTD=
EXTT0=
EXTT1=
EXTT2=
EXTT3=
EXTT4=
EXTT5=
EXTT6=
EXTT7=
EXTT8=
EXTT9=
EXTT10=
PLAYORDER=
